<?xml version="1.0" standalone="no"?><!DOCTYPE svg PUBLIC "-//W3C//DTD SVG 1.1//EN" "http://www.w3.org/Graphics/SVG/1.1/DTD/svg11.dtd"><svg t="1709200619186" class="icon" viewBox="0 0 1024 1024" version="1.1" xmlns="http://www.w3.org/2000/svg" p-id="19464" xmlns:xlink="http://www.w3.org/1999/xlink" width="200" height="200"><path d="M511.94273 1024c-120.2-0.1-235.6-47.2-321.6-131.2-68.6 30.2-148.6-0.9-178.8-69.5-30.2-68.6 0.9-148.6 69.5-178.8 68.6-30.2 148.6 0.9 178.8 69.5 7.6 17.2 11.5 35.8 11.5 54.6 0 30.1-10 59.3-28.4 83C355.84273 957.1 519.84273 987 662.74273 928c4-1.7 8.3-2.6 12.6-2.6 18.2 0 33 14.8 33.1 33 0 13.4-8.1 25.5-20.4 30.6-55.6 23.1-115.1 35-175.3 34.9l-0.8 0.1zM135.84273 699.1c-38.4 0-69.6 31.1-69.7 69.6 0 38.4 31.1 69.6 69.6 69.7 38.4 0 69.6-31.1 69.7-69.6-0.1-38.5-31.2-69.7-69.6-69.7z m752.5 205.2c-74.9 0.7-136.3-59.4-137-134.3-0.7-74.9 59.4-136.2 134.3-136.9h2.8c3.9 0 7.8 0.2 11.6 0.5 29.2-159.9-42.9-321.3-181.5-406.2-15.2-10.2-19.2-30.8-9-45.9 0.1-0.1 0.1-0.2 0.2-0.3 6.2-8.9 16.4-14.3 27.3-14.3 5.5 0 11 1.4 15.9 4.1 165.6 100.8 249.8 294.9 210.2 484.7 62.5 41.3 79.7 125.4 38.4 187.8-25.1 38-67.6 60.8-113.2 60.8z m0-205.2c-38.4 0-69.6 31.1-69.7 69.6 0 38.4 31.1 69.6 69.6 69.7 38.4 0 69.6-31.1 69.7-69.6-0.1-38.6-31.3-69.7-69.6-69.7zM83.64273 565.9c-18.1-1.1-32-16.6-30.9-34.8C67.04273 341.6 195.64273 180 377.04273 123.4 383.84273 48.7 449.94273-6.3 524.64273 0.6s129.7 72.9 122.8 147.6c-6.9 74.7-72.9 129.7-147.6 122.8-49.6-4.6-92.7-35.9-112.4-81.7-151.6 50-257.8 186.7-268.8 345.9-1.3 17.2-15.6 30.6-32.9 30.7h-2.1zM512.14273 66.3c-38.4 0-69.6 31.1-69.6 69.6 0 38.4 31.1 69.6 69.6 69.6 38.4 0 69.6-31.1 69.6-69.6-0.1-38.4-31.2-69.6-69.6-69.6z" fill="#2c2c2c" p-id="19465"></path></svg>