<?xml version="1.0" standalone="no"?><!DOCTYPE svg PUBLIC "-//W3C//DTD SVG 1.1//EN" "http://www.w3.org/Graphics/SVG/1.1/DTD/svg11.dtd"><svg t="1708508479740" class="icon" viewBox="0 0 1024 1024" version="1.1" xmlns="http://www.w3.org/2000/svg" p-id="14525" xmlns:xlink="http://www.w3.org/1999/xlink" width="200" height="200"><path d="M872.64 660.16h-261.12a16 16 0 0 0-16 16v259.2a16 16 0 0 0 16 16h261.12a16 16 0 0 0 16.32-16v-259.2a16 16 0 0 0-16.32-16z m-192 219.84a20.16 20.16 0 1 1-40 0v-149.44a20.16 20.16 0 1 1 40 0z m80.96 0a20.16 20.16 0 1 1-40 0v-149.44a20.16 20.16 0 1 1 40 0z m80.96 0a20.16 20.16 0 1 1-40 0v-149.44a20.16 20.16 0 1 1 40 0zM918.4 594.56H832V537.6a19.52 19.52 0 0 0-13.76-18.56 20.8 20.8 0 0 0-6.08 0h-134.72a20.16 20.16 0 0 0-20.16 19.84v56.96h-91.2a20.16 20.16 0 0 0-20.16 19.84v1.92a19.84 19.84 0 0 0 19.84 18.24h352a20.16 20.16 0 1 0 0-40z" fill="#2c2c2c" p-id="14526"></path><path d="M858.24 382.08V224a36.48 36.48 0 0 0 0-8.32v-4.16c0-34.24-39.68-61.44-117.44-80.96a1103.36 1103.36 0 0 0-252.16-25.92A1103.36 1103.36 0 0 0 236.48 128C160 148.16 119.36 175.36 119.04 209.6a75.52 75.52 0 0 0 0 8.64v163.52a36.8 36.8 0 0 0 0 6.08v162.56a24.32 24.32 0 0 0 0 4.8v154.88a64 64 0 0 0 0 8c0 34.88 39.68 64 117.76 82.56a1064.32 1064.32 0 0 0 252.16 26.88h55.36v-40.64h-55.36a1014.72 1014.72 0 0 1-242.24-25.6C175.04 744 160 723.84 160 718.4v-115.2a303.36 303.36 0 0 0 77.44 28.16 1084.16 1084.16 0 0 0 252.16 26.24h34.24v-40.64H489.6a1056 1056 0 0 1-242.56-24.96C178.88 576 160 557.76 160 551.68V435.2a320 320 0 0 0 77.44 28.16 1103.36 1103.36 0 0 0 252.16 25.92 1103.36 1103.36 0 0 0 252.16-25.92 314.88 314.88 0 0 0 77.44-28.48v50.24h40v-103.04zM160 209.92c0-4.48 14.72-24.32 87.04-42.24a1034.56 1034.56 0 0 1 242.24-24.96 1034.56 1034.56 0 0 1 242.24 24.96c72.64 17.92 87.36 37.76 87.36 42.24v6.08c-3.84 7.04-23.36 24.32-86.72 40a1056 1056 0 0 1-242.56 24.96A1056 1056 0 0 1 246.4 256C176.32 238.72 160 219.84 160 214.4v-4.48z m571.84 214.4a1039.36 1039.36 0 0 1-242.56 24.96 1039.36 1039.36 0 0 1-242.56-24.96C180.16 408 161.92 390.08 160 384V266.56a310.08 310.08 0 0 0 77.76 28.48 1084.16 1084.16 0 0 0 252.16 26.24 1088 1088 0 0 0 252.48-26.24 326.4 326.4 0 0 0 76.8-27.84V384c-2.88 5.12-19.2 23.36-88 40.32z" fill="#2c2c2c" p-id="14527"></path></svg>