<?xml version="1.0" standalone="no"?><!DOCTYPE svg PUBLIC "-//W3C//DTD SVG 1.1//EN" "http://www.w3.org/Graphics/SVG/1.1/DTD/svg11.dtd"><svg t="1717260935220" class="icon" viewBox="0 0 1078 1024" version="1.1" xmlns="http://www.w3.org/2000/svg" p-id="3206" xmlns:xlink="http://www.w3.org/1999/xlink" width="210.546875" height="200"><path d="M628.463021 952.780899a366.861419 366.861419 0 0 1-283.272741-43.342278 191.170402 191.170402 0 1 0-57.273724 51.08197l13.157477-9.287631a423.361173 423.361173 0 0 0 240.704433 72.753109 435.744681 435.744681 0 0 0 105.259817-13.157477 29.410831 29.410831 0 0 0 21.671138-36.376555 30.1848 30.1848 0 0 0-36.376554-21.671138zM77.396924 859.90459a132.34874 132.34874 0 1 1 181.108801 48.760062A133.122709 133.122709 0 0 1 77.396924 859.90459z" fill="#ffffff" p-id="3207"></path><path d="M541.778466 0.024767a192.71834 192.71834 0 0 0-195.814217 192.71834v15.479385a428.778958 428.778958 0 0 0-221.355202 267.019387 29.410831 29.410831 0 0 0 20.1232 36.376554h8.513662a30.1848 30.1848 0 0 0 28.636862-22.445108 368.409357 368.409357 0 0 1 179.560863-221.355202A192.71834 192.71834 0 1 0 541.778466 0.024767z m0 325.06708a133.122709 133.122709 0 1 1 129.252863-133.122709A132.34874 132.34874 0 0 1 541.778466 325.091847z" fill="#ffffff" p-id="3208"></path><path d="M982.166963 626.93985L967.461547 619.200157A424.909112 424.909112 0 0 0 851.366162 294.133077a29.410831 29.410831 0 1 0-42.568309 41.02037 373.827142 373.827142 0 0 1 103.711878 267.793356 191.944371 191.944371 0 0 0-119.965232 357.573788 189.622463 189.622463 0 0 0 95.972186 25.540985 192.71834 192.71834 0 0 0 93.650278-359.121726z m18.575261 232.190771a132.34874 132.34874 0 1 1-48.760062-181.108802 133.122709 133.122709 0 0 1 48.760062 181.108802z" fill="#ffffff" p-id="3209"></path></svg>