<?xml version="1.0" standalone="no"?><!DOCTYPE svg PUBLIC "-//W3C//DTD SVG 1.1//EN" "http://www.w3.org/Graphics/SVG/1.1/DTD/svg11.dtd"><svg t="1708930255996" class="icon" viewBox="0 0 1024 1024" version="1.1" xmlns="http://www.w3.org/2000/svg" p-id="8936" xmlns:xlink="http://www.w3.org/1999/xlink" width="200" height="200"><path d="M938.666667 768h-170.666667v170.666667h170.666667v-170.666667zM597.333333 768h-170.666666v170.666667h170.666666v-170.666667zM256 768H85.333333v170.666667h170.666667v-170.666667zM938.666667 426.666667h-170.666667v170.666666h170.666667v-170.666666zM597.333333 426.666667h-170.666666v170.666666h170.666666v-170.666666zM256 426.666667H85.333333v170.666666h170.666667v-170.666666zM938.666667 85.333333h-170.666667v170.666667h170.666667V85.333333zM597.333333 85.333333h-170.666666v170.666667h170.666666V85.333333zM256 85.333333H85.333333v170.666667h170.666667V85.333333zM426.666667 256H256v170.666667h170.666667V256zM426.666667 597.333333H256v170.666667h170.666667v-170.666667zM768 256h-170.666667v170.666667h170.666667V256zM768 597.333333h-170.666667v170.666667h170.666667v-170.666667z" p-id="8937" fill="#ffffff"></path></svg>