<?xml version="1.0" standalone="no"?><!DOCTYPE svg PUBLIC "-//W3C//DTD SVG 1.1//EN" "http://www.w3.org/Graphics/SVG/1.1/DTD/svg11.dtd"><svg t="1716558145686" class="icon" viewBox="0 0 1820 1024" version="1.1" xmlns="http://www.w3.org/2000/svg" p-id="10068" xmlns:xlink="http://www.w3.org/1999/xlink" width="355.46875" height="200"><path d="M936.504889 163.726222a81.92 81.92 0 1 0 0-163.726222 81.92 81.92 0 0 0 0 163.726222z m-337.351111 58.936889H471.495111L329.500444 533.617778H50.744889L0 641.706667h280.120889L111.274667 1011.598222h127.772444l360.106667-789.048889z m589.368889 0h127.772444L956.188444 1011.712H828.302222L997.262222 641.706667l49.379556-108.088889 141.994666-310.954667zM469.447111 641.706667h315.505778c83.057778 0 158.037333-49.379556 190.805333-125.724445l3.185778-7.623111A202.296889 202.296889 0 0 0 790.755556 226.417778l-50.744889 99.441778 45.966222 2.730666a104.675556 104.675556 0 0 1 90.453333 144.611556 98.190222 98.190222 0 0 1-90.680889 60.643555H520.078222l-50.744889 108.088889z m1031.509333 0h-315.505777l50.744889-108.088889h265.557333c39.708444 0 75.434667-23.893333 90.680889-60.529778a104.675556 104.675556 0 0 0-90.453334-144.497778l-45.966222-2.844444 50.744889-99.441778a202.296889 202.296889 0 0 1 188.188445 282.168889l-3.185778 7.509333A207.644444 207.644444 0 0 1 1500.728889 641.706667zM1741.937778 81.92a81.92 81.92 0 1 1-163.726222 0 81.92 81.92 0 0 1 163.726222 0z" fill="#3531D1" p-id="10069"></path></svg>