<?xml version="1.0" standalone="no"?><!DOCTYPE svg PUBLIC "-//W3C//DTD SVG 1.1//EN" "http://www.w3.org/Graphics/SVG/1.1/DTD/svg11.dtd"><svg t="1717332899719" class="icon" viewBox="0 0 1024 1024" version="1.1" xmlns="http://www.w3.org/2000/svg" p-id="2885" xmlns:xlink="http://www.w3.org/1999/xlink" width="200" height="200"><path d="M695.466667 896H328.533333c-34.133333 0-68.266667-21.333333-81.066666-55.466667L183.466667 682.666667H85.333333c-46.933333 0-85.333333-38.4-85.333333-85.333334V213.333333c0-46.933333 38.4-85.333333 85.333333-85.333333h853.333334c46.933333 0 85.333333 38.4 85.333333 85.333333v384c0 46.933333-38.4 85.333333-85.333333 85.333334h-98.133334l-64 157.866666c-12.8 34.133333-46.933333 55.466667-81.066666 55.466667zM85.333333 213.333333v384h98.133334c34.133333 0 68.266667 21.333333 81.066666 55.466667L328.533333 810.666667h366.933334l64-157.866667c12.8-34.133333 42.666667-55.466667 81.066666-55.466667H938.666667V213.333333H85.333333z" p-id="2886" fill="#ffffff"></path><path d="M256 426.666667c-25.6 0-42.666667-17.066667-42.666667-42.666667V341.333333c0-25.6 17.066667-42.666667 42.666667-42.666666s42.666667 17.066667 42.666667 42.666666v42.666667c0 25.6-17.066667 42.666667-42.666667 42.666667zM426.666667 426.666667c-25.6 0-42.666667-17.066667-42.666667-42.666667V341.333333c0-25.6 17.066667-42.666667 42.666667-42.666666s42.666667 17.066667 42.666666 42.666666v42.666667c0 25.6-17.066667 42.666667-42.666666 42.666667zM597.333333 426.666667c-25.6 0-42.666667-17.066667-42.666666-42.666667V341.333333c0-25.6 17.066667-42.666667 42.666666-42.666666s42.666667 17.066667 42.666667 42.666666v42.666667c0 25.6-17.066667 42.666667-42.666667 42.666667zM768 426.666667c-25.6 0-42.666667-17.066667-42.666667-42.666667V341.333333c0-25.6 17.066667-42.666667 42.666667-42.666666s42.666667 17.066667 42.666667 42.666666v42.666667c0 25.6-17.066667 42.666667-42.666667 42.666667z" p-id="2887" fill="#ffffff"></path></svg>