<?xml version="1.0" standalone="no"?><!DOCTYPE svg PUBLIC "-//W3C//DTD SVG 1.1//EN" "http://www.w3.org/Graphics/SVG/1.1/DTD/svg11.dtd"><svg t="1715948976290" class="icon" viewBox="0 0 1024 1024" version="1.1" xmlns="http://www.w3.org/2000/svg" p-id="2781" xmlns:xlink="http://www.w3.org/1999/xlink" width="200" height="200"><path d="M502.22456 1007.369777H100.377153c-39.866973 0-83.548325-43.681352-83.548325-83.548325V83.548325c0-39.866973 43.681352-83.548325 83.548325-83.548325h764.727403c39.866973 0 77.964028 43.681352 77.964028 83.548325v312.393513c0 12.366063-15.607993 22.489062-28.0792 22.489062a22.424807 22.424807 0 0 1-22.489062-22.489062V83.548325c0-15.129005-12.266761-27.50091-27.495068-27.50091h-764.628101c-15.129005 0-27.495069 12.266761-27.495069 27.50091v840.273127c0 15.129005 12.266761 27.495069 27.495069 27.495069h401.841565a22.489062 22.489062 0 0 1 22.489062 22.494903c0 12.471207-10.122998 33.558353-22.489062 33.558353z m241.754493-808.245198h-569.586601c-12.366063 0-22.489062-15.602152-22.489062-28.073359a22.424807 22.424807 0 0 1 22.489062-22.489062h569.586601a22.489062 22.489062 0 0 1 22.489062 22.489062c0 12.471207-10.122998 28.073359-22.489062 28.073359z m-307.077916 237.157379h-262.508685c-12.366063 0-22.489062-15.602152-22.489062-28.073359a22.424807 22.424807 0 0 1 22.489062-22.489062h262.508685a22.489062 22.489062 0 0 1 22.489062 22.489062c0 12.471207-10.017855 28.073359-22.489062 28.073359z m182.669595-118.57869H174.392452c-12.366063 0-22.489062-15.602152-22.489062-28.073359 0-12.471207 10.017855-16.904765 22.489062-16.904765h445.17828c12.371905 0 22.489062 4.433558 22.489062 16.904765 0 12.471207-10.017855 28.073359-22.489062 28.073359z" fill="#000000" p-id="2782"></path><path d="M978.098949 669.356257c-50.912899-63.48925-105.353953-106.311928-163.393257-128.596544l35.994182-73.250087a21.560293 21.560293 0 1 0-38.692869-19.048527l-39.288683 79.897503a268.864035 268.864035 0 0 0-55.527538-5.747854c-95.412035 0-182.383371 48.938535-260.908165 146.745509a33.126096 33.126096 0 0 0-7.424311 20.964479c0 7.430152 2.453352 14.854463 7.365898 21.022892 50.912899 63.430837 105.359794 106.259357 163.334843 128.596544l-35.877355 73.016435a21.566134 21.566134 0 0 0 9.825091 28.867777c10.660399 5.210453 23.657325 0.782736 28.867778-9.81925l39.113443-79.663851a269.751915 269.751915 0 0 0 55.702778 5.747854c95.417876 0 182.383371-48.932694 260.908165-146.745509a33.58756 33.58756 0 0 0 0-41.987371z m-478.63149 20.964479c67.326994-83.852073 139.438024-124.466735 217.723325-124.466735 12.03895 0 23.90266 0.963817 35.702116 2.879769l-16.116188 32.822347a91.591815 91.591815 0 0 0-19.585928-2.097032c-50.188576 0-90.920064 40.731488-90.920064 90.920064 0 27.974056 12.634764 53.009931 32.582854 69.721933l-19.883836 40.310913c-48.815867-18.446872-95.236796-54.925883-139.502279-110.091259z m265.522804 0c0 26.233345-21.145559 47.559985-47.320491 47.799479l37.67648-76.608843a47.746907 47.746907 0 0 1 9.644011 28.809364z m-95.593116 0c0-26.233345 21.081305-47.437317 47.197823-47.799479l-37.618067 76.55043a47.302967 47.302967 0 0 1-9.579756-28.750951z m47.793637 124.466735c-12.097363 0-24.019486-0.957976-35.754688-2.938181l16.110346-32.763935a92.643252 92.643252 0 0 0 19.644342 2.155445c50.194418 0 90.925905-40.725646 90.925905-90.920064 0-28.032469-12.699018-53.068345-32.647108-69.780346l19.825423-40.363485c48.880122 18.441031 95.295209 54.920041 139.619105 110.143831-67.321153 83.857915-139.496438 124.466735-217.723325 124.466735z" fill="#000000" p-id="2783"></path></svg>