<?xml version="1.0" standalone="no"?><!DOCTYPE svg PUBLIC "-//W3C//DTD SVG 1.1//EN" "http://www.w3.org/Graphics/SVG/1.1/DTD/svg11.dtd"><svg t="1716268734347" class="icon" viewBox="0 0 1024 1024" version="1.1" xmlns="http://www.w3.org/2000/svg" p-id="12744" xmlns:xlink="http://www.w3.org/1999/xlink" width="200" height="200"><path d="M921.472 254.912h-205.056v-55.808a67.2 67.2 0 0 0-21.568-50.24A78.144 78.144 0 0 0 641.28 128H379.52c-41.216 1.024-73.856 32.768-73.088 71.04v55.872H101.312v63.488H169.6v571.136c0 38.592 33.664 69.824 75.136 69.824h533.12c41.536 0 75.2-31.232 75.2-69.76V318.336h68.352v-63.488z m-546.816-55.808a6.016 6.016 0 0 1 1.472-5.376 7.04 7.04 0 0 1 5.376-2.24h266.56c1.792 0 3.52 0.64 4.8 1.856 1.28 1.152 2.048 2.752 2.048 4.48v57.088H374.656v-55.808z m410.112 690.432a5.504 5.504 0 0 1-1.792 4.736 6.4 6.4 0 0 1-5.056 1.6h-533.12a6.4 6.4 0 0 1-5.056-1.6 5.504 5.504 0 0 1-1.728-4.736V318.4h546.752v571.136zM374.656 453.568h68.352v256H374.656v-256z m205.056 0h68.352v256H579.712v-256z" fill="#ffffff" p-id="12745"></path></svg>